<svg id="Capa_1" enable-background="new 0 0 511.962 511.962" height="512" viewBox="0 0 511.962 511.962" width="512" xmlns="http://www.w3.org/2000/svg"><g><g><path d="m255.983 461.294c-89.034 0-161.21-72.176-161.21-161.21v-48.991h322.42v48.991c-.001 89.034-72.177 161.21-161.21 161.21z" fill="#c18053"/></g><g><g><path d="m255.983 43.462c-88.366 0-160 71.634-160 160v15.245h320v-15.245c-.001-88.366-71.635-160-160-160z" fill="#d2996f"/></g></g><g><path d="m285.982 46.282c-9.719-1.844-19.745-2.82-30-2.82-88.365 0-160 71.635-160 160v15.245h60v-15.245c0-78.11 55.977-143.136 130-157.18z" fill="#c18053"/></g><g><g><path d="m350.448 19.027c0-6.385-7.395-9.926-12.37-5.923l-25.33 20.386c-5.566 4.48-13.501 4.48-19.067 0l-28.166-22.669c-5.566-4.48-13.501-4.48-19.068 0l-28.164 22.669c-5.566 4.48-13.501 4.48-19.068 0l-25.329-20.385c-4.974-4.004-12.37-.463-12.37 5.923 0 0-.009 75.755 94.462 75.755s94.47-75.756 94.47-75.756z" fill="#f7ef87"/></g></g><g><path d="m218.283 33.49c-5.567 4.48-13.501 4.48-19.068 0l-25.329-20.385c-4.974-4.004-12.37-.463-12.37 5.923 0 0-.009 75.755 94.462 75.755-31.387 0-52.868-49.353-37.695-61.293z" fill="#efd176"/></g><g><circle cx="401.11" cy="251.093" fill="#ffbf9e" r="36.081"/></g><g><circle cx="110.852" cy="251.093" fill="#f7ab8b" r="36.081"/></g><g><path d="m322.973 403.679h-134.003c-26.246 17.514-45.305 44.995-51.712 76.979-2.469 12.326 7.069 23.804 19.64 23.804h198.16c12.58 0 22.114-11.493 19.636-23.826-6.393-31.826-25.355-59.375-51.721-76.957z" fill="#5ec783"/></g><g><path d="m188.97 403.679c-26.246 17.514-45.305 44.995-51.712 76.979-2.469 12.326 7.069 23.804 19.64 23.804h28.008c0-41.985 21.507-79.057 54.078-100.783z" fill="#49b76b"/></g><g><path d="m188.981 403.679c8.7 28.762 35.4 49.708 67.002 49.708 31.598 0 58.295-20.94 66.999-49.697-8.118-5.415-16.927-9.9-26.3-13.255-2.538-.91-5.111-1.729-7.72-2.467-10.485-2.978-21.547-4.58-32.978-4.58-24.758-.001-47.802 7.48-67.003 20.291z" fill="#ffbf9e"/></g><g><path d="m207.611 433.976c17.339-24.125 43.318-41.645 73.365-47.984-8.065-1.705-16.426-2.605-24.993-2.605-24.756 0-47.8 7.481-67.002 20.292 3.533 11.681 10.036 22.074 18.63 30.297z" fill="#f7ab8b"/></g><g><circle cx="326.671" cy="413.462" fill="#89d47f" r="40"/></g><g><circle cx="185.085" cy="413.462" fill="#89d47f" r="40"/></g><g><path d="m396.528 215.304c-82.683-64.247-198.407-64.247-281.09 0-2.906 11.447-4.455 23.435-4.455 35.786 0 80.081 64.919 145 145 145s145-64.919 145-145c-.001-12.351-1.549-24.339-4.455-35.786z" fill="#ffd4be"/></g><g><path d="m160.982 251.09c0-25.717 6.695-49.869 18.438-70.81-22.611 8.015-44.24 19.683-63.983 35.024-2.906 11.447-4.455 23.435-4.455 35.786 0 80.081 64.919 145 145 145 8.526 0 16.878-.743 25-2.154-68.166-11.848-120-71.291-120-142.846z" fill="#ffbf9e"/></g><g><g><g><ellipse cx="176.426" cy="300.084" fill="#eda1ab" rx="29.355" ry="23.377"/></g><g><ellipse cx="335.539" cy="300.084" fill="#eda1ab" rx="29.355" ry="23.377"/></g></g><g><path d="m193.534 285.081c-4.142 0-7.5-3.358-7.5-7.5v-12c0-4.142 3.358-7.5 7.5-7.5s7.5 3.358 7.5 7.5v12c0 4.142-3.358 7.5-7.5 7.5z"/></g><g><path d="m318.431 285.081c-4.142 0-7.5-3.358-7.5-7.5v-12c0-4.142 3.358-7.5 7.5-7.5s7.5 3.358 7.5 7.5v12c0 4.142-3.358 7.5-7.5 7.5z"/></g><g><path d="m255.982 292.224c-8.477 0-16.539-3.671-22.118-10.073-2.722-3.123-2.396-7.86.726-10.582s7.86-2.397 10.582.726c2.73 3.132 6.67 4.928 10.811 4.928s8.081-1.796 10.811-4.928c2.721-3.124 7.459-3.448 10.582-.726s3.448 7.459.726 10.582c-5.581 6.402-13.643 10.073-22.12 10.073z"/></g></g><path d="m444.691 251.093c0-15.856-8.514-29.757-21.208-37.383v-10.248c0-57.709-30.002-111.524-78.716-142.042 12.946-20.433 13.182-41.051 13.182-42.393 0-5.868-3.288-11.087-8.58-13.622-5.294-2.535-11.421-1.823-15.992 1.856l-25.331 20.386c-2.799 2.253-6.863 2.253-9.663 0l-28.167-22.668c-8.248-6.638-20.222-6.639-28.472 0l-28.164 22.668c-2.8 2.253-6.864 2.253-9.663 0l-25.329-20.385c-4.571-3.678-10.698-4.39-15.992-1.856-5.292 2.534-8.58 7.754-8.58 13.621 0 .861.145 21.322 12.94 41.846.104.167.217.336.323.503-48.778 30.515-78.797 84.287-78.797 142.087v10.229c-13.014 7.809-21.211 22.042-21.211 37.402 0 15.346 7.98 28.855 20.001 36.622v12.369c0 45.908 18.064 88.713 50.884 120.73 1.047 6.711 3.513 12.955 7.067 18.431-7.337 12.404-12.489 25.819-15.318 39.94-1.612 8.046.457 16.314 5.676 22.682 5.258 6.416 13.028 10.095 21.318 10.095h198.16c8.292 0 16.063-3.681 21.319-10.099 5.222-6.375 7.288-14.65 5.67-22.705-2.847-14.168-8.031-27.628-15.414-40.07 3.456-5.37 5.863-11.473 6.922-18.025 32.982-32.043 51.137-74.946 51.137-120.979v-12.371c12.019-7.768 19.998-21.276 19.998-36.621zm-268.179-177.814c14.215 15.114 38.438 29.004 79.466 29.004 7.143 0 14.046-.423 20.519-1.257 4.108-.53 7.009-4.289 6.479-8.397-.529-4.108-4.283-7.007-8.397-6.479-5.839.752-12.097 1.134-18.601 1.134-85.529 0-86.943-65.491-86.973-68.3.026-.032.11-.072.179-.035l25.329 20.386c8.25 6.64 20.224 6.639 28.473 0l28.164-22.668c2.799-2.252 6.862-2.253 9.663 0l28.167 22.668c8.248 6.639 20.224 6.638 28.472 0l25.358-20.423c.042 0 .125.041.14.092-.011 1.717-.749 42.257-41.394 59.993-3.796 1.657-5.531 6.077-3.875 9.874 1.656 3.796 6.076 5.531 9.874 3.875 11.926-5.204 21.025-12.021 27.974-19.408 45.112 27.643 72.954 77.081 72.954 130.127v4.686c-2.398-.411-4.859-.636-7.373-.636-.782 0-1.567.027-2.35.068-84.496-63.987-201.056-63.987-285.551-.002-.785-.042-1.572-.066-2.356-.066-2.496 0-4.955.212-7.37.623v-4.673c-.001-53.136 27.852-102.547 73.029-130.186zm-77.732 151.898c2.341-1.093 4.788-1.851 7.311-2.272-1.732 9.263-2.609 18.706-2.609 28.186 0 9.493.902 18.928 2.638 28.185-13.515-2.262-23.85-14.035-23.85-28.182.001-11.063 6.481-21.236 16.51-25.917zm3.492 74.907v-6.263c2.451.491 4.977.766 7.556.826 3.37 11.337 8.047 22.278 13.983 32.563 2.072 3.589 6.658 4.818 10.245 2.748s4.817-6.657 2.747-10.245c-11.985-20.768-18.32-44.497-18.32-68.623 0-10.618 1.215-21.183 3.616-31.445 79.203-60.086 188.566-60.087 267.769 0 2.4 10.263 3.615 20.827 3.615 31.445 0 75.818-61.682 137.5-137.5 137.5-38.714 0-75.845-16.457-101.872-45.15-2.783-3.067-7.525-3.299-10.594-.516-3.068 2.783-3.299 7.526-.516 10.594 6.019 6.635 12.579 12.671 19.573 18.083-11.245 6.024-19.619 16.376-23.144 28.708-24.059-27.845-37.158-62.91-37.158-100.225zm224.399 145.878c-17.92 0-32.5-14.58-32.5-32.5 0-5.585 1.435-11.026 4.138-15.853 12.776-3.696 24.865-9.022 36.03-15.737 14.483 3.493 24.833 16.525 24.833 31.589-.001 17.921-14.581 32.501-32.501 32.501zm-174.086-32.5c0-15.202 10.39-28.186 24.979-31.621 11.219 6.721 23.26 11.983 35.816 15.646 2.748 4.858 4.205 10.339 4.205 15.975 0 17.92-14.58 32.5-32.5 32.5s-32.5-14.58-32.5-32.5zm78.479-11.942c8.187 1.362 16.518 2.07 24.918 2.07 8.407 0 16.654-.695 24.695-2.01-.994 3.856-1.507 7.844-1.507 11.881 0 9.038 2.539 17.493 6.939 24.693-9.186 5.073-19.474 7.732-30.127 7.732-10.713 0-21.056-2.69-30.281-7.819 4.366-7.181 6.883-15.605 6.883-24.606.001-4.06-.516-8.068-1.52-11.941zm133.71 90.838c-2.396 2.926-5.938 4.604-9.715 4.604h-198.16c-3.777 0-7.319-1.678-9.716-4.603-2.359-2.878-3.295-6.606-2.57-10.228 2.195-10.958 5.975-21.438 11.26-31.255 8.064 6.31 18.202 10.086 29.212 10.086 11.704 0 22.425-4.263 30.713-11.308 12.092 7.359 25.874 11.232 40.184 11.232 14.262 0 27.999-3.846 40.063-11.157 8.276 7 18.964 11.232 30.626 11.232 11.072 0 21.263-3.818 29.349-10.193 5.314 9.843 9.114 20.354 11.322 31.344.729 3.629-.207 7.364-2.568 10.246zm44.918-192.274c0 37.408-13.161 72.547-37.327 100.423-3.5-12.34-11.873-22.775-23.113-28.852 24.886-19.296 43.657-46.111 52.881-77.007 2.58-.06 5.107-.335 7.558-.827v6.263zm-3.83-20.813c1.714-9.137 2.621-18.554 2.621-28.181 0-9.475-.877-18.914-2.607-28.174 13.498 2.276 23.815 14.041 23.815 28.176 0 14.141-10.324 25.909-23.829 28.179z"/></g></svg>